
    <svg
      xmlns="http://www.w3.org/2000/svg"
      width="21.429"
      height="17.857"
      viewBox="0 0 21.429 17.857"
    >
      <path
        fill="#707070"
        d="M21.429 18.321v1.786a.905.905 0 01-.893.893H.893a.858.858 0 01-.628-.265.858.858 0 01-.265-.628v-1.786a.858.858 0 01.265-.628.858.858 0 01.628-.265h19.643a.905.905 0 01.893.893zm0-7.143v1.786a.905.905 0 01-.893.893H.893a.858.858 0 01-.628-.265.858.858 0 01-.265-.628v-1.785a.858.858 0 01.265-.628.858.858 0 01.628-.265h19.643a.905.905 0 01.893.893zm0-7.143v1.786a.905.905 0 01-.893.893H.893a.858.858 0 01-.628-.265A.858.858 0 010 5.821V4.036a.858.858 0 01.265-.628.858.858 0 01.628-.265h19.643a.905.905 0 01.893.893z"
        data-name="Path 1"
        transform="translate(0 -3.143)"
      ></path>
    </svg>
  